#!OML:ASF H:\Dans Jumps\Project 1\Capture day 1\Session 1\subject.ASF
:FULLY-SPECIFIED
:DEGREES
332
root -0.211793 14.6543 -14.5484 30.8629 1.67765 -1.8563
lowerback 24.1562 0.94589 -2.11025
upperback 2.05652 1.02835 2.95821
thorax -11.3321 0.66922 4.20161
lowerneck -23.8382 -0.588364 -2.49725
upperneck 2.94566 -0.0307055 -0.287244
head 4.5909 -0.0765398 0.298732
rclavicle 6.75868e-015 1.17283e-014
rhumerus -16.4269 -31.5091 -73.7955
rradius 20.1051
rwrist 40.9551
rhand -22.6965 -26.2891
rfingers 7.12502
rthumb 3.73624 -56.2361
lclavicle 6.75868e-015 1.17283e-014
lhumerus -11.3948 21.7238 79.2855
lradius 6.33403
lwrist -11.3569
lhand -28.5368 -5.76643
lfingers 7.12502
lthumb -1.90435 24.2048
rfemur -72.1716 -1.07853 21.7886
rtibia 77.228
rfoot -32.9091 -16.5124
rtoes -3.44653
lfemur -71.5858 5.02702 -16.8113
ltibia 76.4701
lfoot -27.222 21.7683
ltoes -15.4568
333
root -0.213299 14.7591 -14.4061 30.3423 1.70895 -1.78534
lowerback 23.7468 0.925467 -2.15992
upperback 1.9472 0.994042 2.95346
thorax -11.2323 0.655975 4.23373
lowerneck -23.8829 -0.585267 -2.54082
upperneck 3.64975 -0.00579478 -0.279604
head 4.82215 -0.0715853 0.310417
rclavicle -1.15295e-014 -7.35503e-015
rhumerus -14.4418 -31.0782 -74.8636
rradius 20.3225
rwrist 41.1168
rhand -22.9534 -26.3221
rfingers 7.12502
rthumb 3.48807 -56.2733
lclavicle -1.15295e-014 -7.35503e-015
lhumerus -9.40191 22.123 80.0428
lradius 6.39199
lwrist -11.5078
lhand -28.9726 -5.92491
lfingers 7.12502
lthumb -2.3252 24.0422
rfemur -70.2662 -1.3129 21.8031
rtibia 76.01
rfoot -32.8612 -16.5319
rtoes -4.68761
lfemur -69.6542 4.99219 -16.7966
ltibia 75.212
lfoot -27.1196 21.8299
ltoes -16.3833
334
root -0.214917 14.8726 -14.2562 29.7389 1.74862 -1.69602
lowerback 23.34 0.901216 -2.20729
upperback 1.8424 0.953805 2.93401
thorax -11.1268 0.639143 4.24951
lowerneck -23.8809 -0.587482 -2.58575
upperneck 4.41976 0.00938629 -0.250176
head 5.06875 -0.0705748 0.328484
rclavicle -1.05356e-014 -5.96354e-015
rhumerus -12.5891 -30.5166 -75.8918
rradius 20.5485
rwrist 41.2862
rhand -23.0876 -26.3425
rfingers 7.12502
rthumb 3.35855 -56.2957
lclavicle -1.05356e-014 -5.96354e-015
lhumerus -7.56455 22.4722 80.7871
lradius 6.59859
lwrist -11.7128
lhand -29.4149 -6.31098
lfingers 7.12502
lthumb -2.75244 23.651
rfemur -68.1633 -1.56392 21.7953
rtibia 74.662
rfoot -32.8091 -16.5302
rtoes -5.77737
lfemur -67.5326 4.96971 -16.8098
ltibia 73.8137
lfoot -27.0197 21.8307
ltoes -17.2025
335
root -0.216615 14.995 -14.0986 29.0572 1.79964 -1.59772
lowerback 22.928 0.871534 -2.24266
upperback 1.74443 0.908558 2.90392
thorax -11.0089 0.618606 4.24749
lowerneck -23.8446 -0.595965 -2.63224
upperneck 5.2679 0.014733 -0.208627
head 5.33654 -0.07435 0.349855
rclavicle -3.77691e-015 -3.1408e-014
rhumerus -10.8938 -29.7709 -76.8789
rradius 20.8352
rwrist 41.2018
rhand -23.1069 -26.3473
rfingers 7.12502
rthumb 3.33987 -56.3009
lclavicle -3.77691e-015 -3.1408e-014
lhumerus -5.89692 22.779 81.5084
lradius 6.96117
lwrist -11.8418
lhand -29.8217 -6.8925
lfingers 7.12502
lthumb -3.14525 23.064
rfemur -65.8629 -1.82354 21.7727
rtibia 73.171
rfoot -32.7485 -16.496
rtoes -6.63027
lfemur -65.2254 4.96237 -16.8369
ltibia 72.2691
lfoot -26.883 21.7754
ltoes -17.9741
336
root -0.218263 15.1259 -13.9334 28.3068 1.85851 -1.49147
lowerback 22.4972 0.837488 -2.26872
upperback 1.6559 0.859414 2.8665
thorax -10.8685 0.59487 4.23239
lowerneck -23.7519 -0.606232 -2.67166
upperneck 6.1693 0.0151632 -0.177903
head 5.61435 -0.0818508 0.366324
rclavicle 5.96354e-016 -5.56597e-015
rhumerus -9.37634 -28.8221 -77.8123
rradius 21.2145
rwrist 40.6998
rhand -23.0863 -26.3244
rfingers 7.12502
rthumb 3.35975 -56.2777
lclavicle 5.96354e-016 -5.56597e-015
lhumerus -4.3893 23.0538 82.2094
lradius 7.45496
lwrist -11.8102
lhand -30.1425 -7.63663
lfingers 7.12502
lthumb -3.45506 22.3151
rfemur -63.3726 -2.08247 21.7304
rtibia 71.5258
rfoot -32.6602 -16.4244
rtoes -7.22512
lfemur -62.7444 4.96961 -16.8723
ltibia 70.5758
lfoot -26.677 21.659
ltoes -18.7372
337
root -0.219401 15.2653 -13.7604 27.496 1.92382 -1.38407
lowerback 22.0264 0.798638 -2.27737
upperback 1.58303 0.80824 2.82504
thorax -10.6872 0.568046 4.20231
lowerneck -23.571 -0.616439 -2.71065
upperneck 7.08446 0.0142967 -0.161794
head 5.88449 -0.0914161 0.378096
rclavicle 9.93923e-016 -1.94809e-014
rhumerus -8.0325 -27.7258 -78.6815
rradius 21.6727
rwrist 39.788
rhand -23.0937 -26.2601
rfingers 7.12502
rthumb 3.35264 -56.2135
lclavicle 9.93923e-016 -1.94809e-014
lhumerus -2.9851 23.3079 82.9129
lradius 8.00683
lwrist -11.5928
lhand -30.3418 -8.43872
lfingers 7.12502
lthumb -3.64754 21.5098
rfemur -60.7016 -2.33524 21.6697
rtibia 69.7138
rfoot -32.4981 -16.3386
rtoes -7.71746
lfemur -60.0998 4.98948 -16.9041
ltibia 68.7354
lfoot -26.3645 21.4835
ltoes -19.549
338
root -0.219956 15.4133 -13.5791 26.6287 1.99281 -1.27173
lowerback 21.5049 0.756968 -2.27594
upperback 1.53235 0.755828 2.78038
thorax -10.4519 0.53856 4.16195
lowerneck -23.2865 -0.623862 -2.74635
upperneck 7.98545 0.0148912 -0.164299
head 6.13505 -0.101759 0.383695
rclavicle -5.96354e-016 6.75868e-015
rhumerus -6.84683 -26.5186 -79.4832
rradius 22.1882
rwrist 38.5812
rhand -23.1614 -26.1851
rfingers 7.12502
rthumb 3.28726 -56.1395
lclavicle -5.96354e-016 6.75868e-015
lhumerus -1.63614 23.5496 83.6438
lradius 8.55674
lwrist -11.2506
lhand -30.3635 -9.19861
lfingers 7.12502
lthumb -3.66845 20.7496
rfemur -57.8545 -2.5722 21.5781
rtibia 67.7295
rfoot -32.2293 -16.2431
rtoes -8.23016
lfemur -57.3037 5.01874 -16.9324
ltibia 66.7573
lfoot -25.9031 21.2303
ltoes -20.4003
339
root -0.219799 15.5692 -13.3897 25.7157 2.06496 -1.14977
lowerback 20.9229 0.713182 -2.27009
upperback 1.50372 0.701668 2.7312
thorax -10.1577 0.506367 4.1132
lowerneck -22.8791 -0.624851 -2.77495
upperneck 8.84923 0.0197521 -0.183275
head 6.35482 -0.110982 0.383505
rclavicle -7.95139e-016 7.95139e-016
rhumerus -5.80022 -25.2626 -80.2138
rradius 22.7098
rwrist 37.3172
rhand -23.2821 -26.1183
rfingers 7.12502
rthumb 3.17064 -56.0744
lclavicle -7.95139e-016 7.95139e-016
lhumerus -0.317163 23.7824 84.4145
lradius 9.06939
lwrist -10.9125
lhand -30.2264 -9.78518
lfingers 7.12502
lthumb -3.53605 20.1652
rfemur -54.8494 -2.78979 21.4459
rtibia 65.5771
rfoot -31.8221 -16.1291
rtoes -8.85531
lfemur -54.3905 5.06 -16.9642
ltibia 64.6669
lfoot -25.2684 20.8764
ltoes -21.3212
